<svg width="24" height="24" viewBox="0 0 24 24" fill="none" xmlns="http://www.w3.org/2000/svg">
  <path d="M12 4.5C13.6 6.9 16.8 8.9 16.8 13C16.8 16 14.6 18.5 12 18.5C9.4 18.5 7.2 16.1 7.2 13.1C7.2 10.7 8.3 9.2 9.6 7.9C10.4 7.1 11.2 6.1 12 4.5Z" stroke="#FFFFFF" stroke-width="1.8" stroke-linejoin="round"/>
  <path d="M12 11.2C12.8 12 13.6 12.8 13.6 14.1C13.6 15.3 12.8 16.2 11.9 16.2C10.9 16.2 10.1 15.3 10.1 14.2C10.1 13.3 10.5 12.7 12 11.2Z" stroke="#FFFFFF" stroke-width="1.8" stroke-linejoin="round"/>
</svg>
