<svg xmlns="http://www.w3.org/2000/svg" viewBox="0 0 120 120" role="img" aria-label="Gym Buddy">
  <defs>
    <linearGradient id="bg" x1="14%" y1="10%" x2="88%" y2="92%">
      <stop offset="0%" stop-color="#1738B7" />
      <stop offset="56%" stop-color="#4B67F4" />
      <stop offset="100%" stop-color="#78B3FF" />
    </linearGradient>
    <linearGradient id="accent" x1="18%" y1="18%" x2="82%" y2="82%">
      <stop offset="0%" stop-color="#8CF2D7" />
      <stop offset="100%" stop-color="#D7FFF7" />
    </linearGradient>
    <linearGradient id="shine" x1="0%" y1="0%" x2="100%" y2="100%">
      <stop offset="0%" stop-color="#FFFFFF" stop-opacity="0.42" />
      <stop offset="100%" stop-color="#FFFFFF" stop-opacity="0" />
    </linearGradient>
    <filter id="softGlow" x="-30%" y="-30%" width="160%" height="160%">
      <feGaussianBlur stdDeviation="5" result="blur" />
      <feColorMatrix
        in="blur"
        type="matrix"
        values="1 0 0 0 0
                0 1 0 0 0
                0 0 1 0 0
                0 0 0 0.18 0"
      />
    </filter>
  </defs>

  <rect x="10" y="10" width="100" height="100" rx="30" fill="url(#bg)" />
  <rect x="14" y="14" width="92" height="92" rx="26" fill="none" stroke="rgba(255,255,255,0.18)" stroke-width="1.6" />
  <path d="M24 20C37 12 57 14 68 26C54 22 40 24 24 36Z" fill="url(#shine)" />
  <ellipse cx="60" cy="98" rx="28" ry="8" fill="#0C1D57" opacity="0.18" filter="url(#softGlow)" />

  <g fill="none" stroke-linecap="round" stroke-linejoin="round">
    <circle cx="46" cy="38" r="7.5" fill="url(#accent)" stroke="none" />
    <circle cx="74" cy="38" r="7.5" fill="url(#accent)" stroke="none" />

    <path d="M46 50L41 68" stroke="#FFFFFF" stroke-width="5.5" />
    <path d="M74 50L79 68" stroke="#FFFFFF" stroke-width="5.5" />
    <path d="M52 56L60 64L68 56" stroke="url(#accent)" stroke-width="5" />

    <path d="M38 74H82" stroke="#FFFFFF" stroke-width="6.5" />
    <path d="M30 66V82" stroke="#FFFFFF" stroke-width="5.5" />
    <path d="M38 68V80" stroke="#FFFFFF" stroke-width="4.5" />
    <path d="M82 68V80" stroke="#FFFFFF" stroke-width="4.5" />
    <path d="M90 66V82" stroke="#FFFFFF" stroke-width="5.5" />
  </g>
</svg>
